<?xml version="1.0" encoding="utf-8"?>
<!-- Generator: Adobe Illustrator 24.1.2, SVG Export Plug-In . SVG Version: 6.00 Build 0)  -->
<svg version="1.1" id="Слой_1" xmlns="http://www.w3.org/2000/svg" xmlns:xlink="http://www.w3.org/1999/xlink" x="0px" y="0px"
	 viewBox="0 0 784.3 222.2" style="enable-background:new 0 0 784.3 222.2;" xml:space="preserve">
<style type="text/css">
	.st0{fill:#194383;}
	.st1{fill:#3C3C3B;}
</style>
<polygon class="st0" points="0,34.1 68.4,0 136.6,34 136.6,166.8 170.9,184.5 170.9,222.2 68.4,170.9 -0.2,204.8 -0.2,166.9 
	68.2,133 102.4,150.4 102.4,51.2 68.1,33.9 34,51 34,81.9 68.5,64.6 68.5,102.3 0,136.5 "/>
<g>
	<path class="st1" d="M359,132.8c-12.9,0-21.3-9.2-21.3-22.5c0-13.2,8.4-22.5,20.9-22.5c7.6,0,14.5,3.6,19.6,10l11.5-12
		c-8.9-10.1-19.9-15.2-32.3-15.2c-23.7,0-38.9,17.3-38.9,39.6c0,22.8,15.5,39.6,39.3,39.6c12.8,0,25.1-4.8,33.6-15.7l-11.5-12
		C374.6,129,367.6,132.8,359,132.8z"/>
	<polygon class="st1" points="465.5,72.2 443.6,72.2 425.6,101.6 419.6,101.6 419.6,72.2 400.9,72.2 400.9,148.5 419.6,148.5 
		419.6,118.3 425.6,118.3 444.3,148.5 466.3,148.5 441.7,109.6 	"/>
	<path class="st1" d="M615.7,90.8c-17.8,0-30,12.2-30,29.7c0,17.6,12.4,29.5,31.7,29.5c9.9,0,18.8-2.9,25.1-8l-6.9-11.1
		c-4.8,3.5-10.4,5.6-16.9,5.6c-8.3,0-14.2-3.7-15.9-9.6h42C648.1,106.5,635.6,90.8,615.7,90.8z M602.6,115.5c1.3-6.8,6.4-11,13.2-11
		c7.1,0,11.8,4.5,13.2,11H602.6z"/>
	<path class="st1" d="M661,120.7c-0.8,9.1-3.3,11.1-12.1,13.1l3.8,15.6c17.3-2.8,24.3-9.6,25.6-25.7l1.3-15.5h13.7v40.4h17.7V92.2
		h-47.7L661,120.7z"/>
	<path class="st1" d="M753,90.8c-18.8,0-31.4,11.9-31.4,29.6s12.7,29.6,31.4,29.6c18.7,0,31.3-11.9,31.3-29.6S771.6,90.8,753,90.8z
		 M753,134.7c-8.2,0-13.9-5.7-13.9-14.3c0-8.5,5.7-14.3,13.9-14.3c8.1,0,13.7,5.8,13.7,14.3C766.7,129,761.1,134.7,753,134.7z"/>
	<path class="st1" d="M275.5,75.7V65.2h-18v10.6c-20.6,1.6-34.9,15.1-34.9,34.6s14.3,32.9,34.9,34.6v9l18-9v0
		c20.6-1.6,34.8-15.1,34.8-34.6S296.2,77.4,275.5,75.7z M257.9,128.6c-10.3-1.2-17.1-7.9-17.1-18.2s6.9-17,17.1-18.2V128.6z
		 M275.2,128.6V92.1c10.3,1.2,17.1,7.9,17.1,18.2S285.5,127.4,275.2,128.6z"/>
	<path class="st1" d="M567.8,72.2h-55.2l-2.4,35.8c-1,13.7-3.3,19.5-7.2,23.2h-9.3v25.9l17.1-8.6v0h51.8v0l17.1,8.6v-25.9h-12V72.2z
		 M549.1,131.9h-25.7c2.6-5,4.6-12.2,5.3-22.4l1.3-20.5h19.1V131.9z"/>
</g>
</svg>
