<svg aria-hidden="true" style="position: absolute; width: 0; height: 0; overflow: hidden;" version="1.1" xmlns="http://www.w3.org/2000/svg" xmlns:xlink="http://www.w3.org/1999/xlink">
<defs>
<symbol id="icon-logo_FSC_Delo" viewBox="0 0 113 32">
<path fill="#194383" style="fill: var(--color1, #194383)" d="M0 4.911l9.851-4.911 9.822 4.896v19.125l4.94 2.549v5.429l-14.761-7.388-9.879 4.882v-5.458l9.851-4.882 4.925 2.506v-14.286l-4.94-2.491-4.911 2.463v4.45l4.969-2.491v5.429l-9.865 4.925z"></path>
<path fill="#3c3c3b" style="fill: var(--color2, #3c3c3b)" d="M51.701 19.125c-1.858 0-3.068-1.325-3.068-3.24 0-1.901 1.21-3.24 3.010-3.24 1.095 0 2.088 0.518 2.823 1.44l1.656-1.728c-1.282-1.455-2.866-2.189-4.652-2.189-3.413 0-5.602 2.491-5.602 5.703 0 3.284 2.232 5.703 5.66 5.703 1.843 0 3.615-0.691 4.839-2.261l-1.656-1.728c-0.763 0.994-1.771 1.541-3.010 1.541z"></path>
<path fill="#3c3c3b" style="fill: var(--color2, #3c3c3b)" d="M67.039 10.398h-3.154l-2.592 4.234h-0.864v-4.234h-2.693v10.988h2.693v-4.349h0.864l2.693 4.349h3.168l-3.543-5.602z"></path>
<path fill="#3c3c3b" style="fill: var(--color2, #3c3c3b)" d="M88.67 13.076c-2.563 0-4.32 1.757-4.32 4.277 0 2.535 1.786 4.248 4.565 4.248 1.426 0 2.707-0.418 3.615-1.152l-0.994-1.599c-0.691 0.504-1.498 0.806-2.434 0.806-1.195 0-2.045-0.533-2.29-1.383h6.049c0.475-2.938-1.325-5.199-4.191-5.199zM86.783 16.634c0.187-0.979 0.922-1.584 1.901-1.584 1.022 0 1.699 0.648 1.901 1.584h-3.802z"></path>
<path fill="#3c3c3b" style="fill: var(--color2, #3c3c3b)" d="M95.194 17.383c-0.115 1.311-0.475 1.599-1.743 1.887l0.547 2.247c2.491-0.403 3.5-1.383 3.687-3.701l0.187-2.232h1.973v5.818h2.549v-8.122h-6.87l-0.331 4.104z"></path>
<path fill="#3c3c3b" style="fill: var(--color2, #3c3c3b)" d="M108.443 13.076c-2.707 0-4.522 1.714-4.522 4.263s1.829 4.263 4.522 4.263c2.693 0 4.508-1.714 4.508-4.263s-1.829-4.263-4.508-4.263zM108.443 19.399c-1.181 0-2.002-0.821-2.002-2.059 0-1.224 0.821-2.059 2.002-2.059 1.167 0 1.973 0.835 1.973 2.059 0 1.239-0.806 2.059-1.973 2.059z"></path>
<path fill="#3c3c3b" style="fill: var(--color2, #3c3c3b)" d="M39.676 10.902v-1.512h-2.592v1.527c-2.967 0.23-5.026 2.175-5.026 4.983s2.059 4.738 5.026 4.983v1.296l2.592-1.296c2.967-0.23 5.012-2.175 5.012-4.983s-2.031-4.752-5.012-4.997zM37.141 18.52c-1.483-0.173-2.463-1.138-2.463-2.621s0.994-2.448 2.463-2.621v5.242zM39.633 18.52v-5.257c1.483 0.173 2.463 1.138 2.463 2.621s-0.979 2.463-2.463 2.635z"></path>
<path fill="#3c3c3b" style="fill: var(--color2, #3c3c3b)" d="M81.771 10.398h-7.95l-0.346 5.156c-0.144 1.973-0.475 2.808-1.037 3.341h-1.339v3.73l2.463-1.239h7.46l2.463 1.239v-3.73h-1.728v-8.497zM79.078 18.995h-3.701c0.374-0.72 0.662-1.757 0.763-3.226l0.187-2.952h2.751v6.178z"></path>
</symbol>
</defs>
</svg>
